<?xml version="1.0" encoding="utf-8"?>
<!-- Generator: Adobe Illustrator 21.1.0, SVG Export Plug-In . SVG Version: 6.00 Build 0)  -->
<svg version="1.1" id="Layer_1" xmlns="http://www.w3.org/2000/svg" xmlns:xlink="http://www.w3.org/1999/xlink" x="0px" y="0px"
	 viewBox="0 0 841.9 335.2" style="enable-background:new 0 0 841.9 335.2;" xml:space="preserve">
<style type="text/css">
	.st0{fill:#B61F3D;}
	.st1{fill:#FFFFFF;}
	.st2{fill:url(#SVGID_1_);}
</style>
<g>
	<g>
		<path class="st0" d="M75.7,210.6c0-1.5-0.5-2.8-1.6-3.9c-1.1-1.1-2.4-1.6-3.9-1.6c-1.5,0-2.8,0.5-3.9,1.6
			c-1.1,1.1-1.6,2.4-1.6,3.9c0,1.5,0.5,2.8,1.6,3.9c1.1,1.1,2.4,1.6,3.9,1.6c1.5,0,2.8-0.5,3.9-1.6
			C75.2,213.4,75.7,212.1,75.7,210.6z"/>
		<path class="st0" d="M61.9,214.4c1.1-1.1,1.6-2.4,1.6-3.9c0-1.5-0.5-2.8-1.6-3.9c-1.1-1.1-2.4-1.6-3.9-1.6c-1.5,0-2.8,0.5-3.9,1.6
			c-1.1,1.1-1.6,2.4-1.6,3.9c0,1.5,0.5,2.8,1.6,3.9c1.1,1.1,2.4,1.6,3.9,1.6C59.5,216,60.8,215.5,61.9,214.4z"/>
		<path class="st0" d="M132.6,186.3c4.1,0,7.6-1.4,10.5-4.3s4.4-6.4,4.4-10.5v-23.3c-2.6,0-4.8,0.9-6.6,2.8
			c-1.8,1.8-2.7,4.1-2.7,6.7v13.9c0,1.5-0.5,2.8-1.6,3.9s-2.4,1.6-3.9,1.6h-5h-1.7h-7.6h-1.7h-7.6h-1.7h-7.7h-1.3
			c-1.5,0-2.8-0.5-3.9-1.6S93,173,93,171.5v-23.3h-5.1c-9.3,0.5-16.2,3-20.9,7.6c-4.7,4.6-7,9.8-7,15.8c0,3.6,1.2,6.8,3.5,9.6
			c2.3,2.7,5.3,4.4,8.9,5.1c0.2,0,0.5,0,0.9,0.1c0.4,0,0.9,0,1.4,0c0.5,0.1,0.8,0.3,1,0.7c0.2,0.4,0.1,0.8-0.3,1.2
			c-3.3,3.3-7.4,4.7-12.4,4.5c-3.9-0.4-7.2-2-9.8-4.7c-2.6-2.7-4.1-6-4.5-9.9c-0.2-3.2,0.5-6,1.9-8.6c1.8-3.6,1.6-7-0.7-10.3
			l-1.3-1.7c-6.3,5.2-9.4,12.1-9.3,20.8c0.5,6.6,3,12.1,7.5,16.5s10,6.8,16.6,7.2c7.5,0.1,13.8-2.3,18.8-7.3
			c2.2-2.3,3.2-4.8,3.1-7.5c-0.1-2.7-1.1-5.1-3-7.2c-1.9-2-4.4-3.1-7.5-3.1h-0.1c0,0-0.1,0-0.1,0c-0.1,0-0.3,0-0.5,0
			c-0.2,0-0.3-0.1-0.5-0.1c-0.2,0-0.3-0.1-0.4-0.1c-1.1-0.4-2-1.1-2.8-2c-0.7-0.9-1.1-2-1.1-3.2c0-2.6,0.9-5.1,2.8-7.5
			c1.8-2.4,4.5-4.2,8.1-5.2c1-0.3,2.1-0.5,3.4-0.6c0.1,0,0.1,0,0.2,0v13.3c0,4.1,1.4,7.6,4.3,10.5c2.8,2.8,6.2,4.2,10.2,4.3v0h0.3
			h1.3h7.7h1.7h7.6h1.7h7.6h1.7H132.6z"/>
		<path class="st0" d="M129.7,194c-1.1,1.1-1.6,2.4-1.6,3.9s0.5,2.8,1.6,3.9c1.1,1.1,2.4,1.6,3.9,1.6c1.5,0,2.8-0.5,3.9-1.6
			c1.1-1.1,1.6-2.4,1.6-3.9s-0.5-2.8-1.6-3.9c-1.1-1.1-2.4-1.6-3.9-1.6C132.1,192.4,130.8,192.9,129.7,194z"/>
		<path class="st0" d="M196.3,167.2c0-5.1-1.8-9.5-5.3-13.2c-3.5-3.6-7.9-5.6-13.2-5.9h-0.6c-0.6,0-1.2,0-1.7,0.1
			c-5.3,0.4-10.2,2.5-14.6,6.4l1.3,1.5c2.8,2.8,6.1,3.6,9.8,2.4c1.3-0.5,2.7-0.8,4.2-0.9h0.1c0.3,0,0.6,0,0.9,0h0.4
			c2.7,0.1,4.9,1.1,6.6,2.9c1.7,1.8,2.7,4,2.8,6.6c0,2.7-1,5-2.8,6.9c-1.8,1.9-4.1,2.9-6.8,3h-11.9c-2.6,0-4.8,0.9-6.6,2.7
			c-1.8,1.8-2.8,4-2.8,6.6h21.8c5.3-0.3,9.7-2.2,13.2-5.9C194.5,176.8,196.3,172.4,196.3,167.2z"/>
		<path class="st0" d="M229,139.6c1.5,0,2.8-0.5,3.9-1.6c1.1-1.1,1.6-2.4,1.6-3.9c0-1.5-0.5-2.8-1.6-3.9c-1.1-1.1-2.4-1.6-3.9-1.6
			c-1.5,0-2.8,0.5-3.9,1.6c-1.1,1.1-1.6,2.4-1.6,3.9c0,1.5,0.5,2.8,1.6,3.9C226.2,139.1,227.5,139.6,229,139.6z"/>
		<path class="st0" d="M241.3,139.6c1.5,0,2.8-0.5,3.9-1.6s1.6-2.4,1.6-3.9c0-1.5-0.5-2.8-1.6-3.9s-2.4-1.6-3.9-1.6
			c-1.5,0-2.8,0.5-3.9,1.6c-1.1,1.1-1.6,2.4-1.6,3.9c0,1.5,0.5,2.8,1.6,3.9C238.5,139.1,239.8,139.6,241.3,139.6z"/>
		<path class="st0" d="M303.4,194c-1.1,1.1-1.6,2.4-1.6,3.9s0.5,2.8,1.6,3.9c1.1,1.1,2.4,1.6,3.9,1.6c1.5,0,2.8-0.5,3.9-1.6
			c1.1-1.1,1.6-2.4,1.6-3.9s-0.5-2.8-1.6-3.9c-1.1-1.1-2.4-1.6-3.9-1.6C305.8,192.4,304.5,192.9,303.4,194z"/>
		<path class="st0" d="M300.5,197.8c0-1.5-0.5-2.8-1.6-3.9c-1.1-1.1-2.4-1.6-3.9-1.6c-1.5,0-2.8,0.5-3.9,1.6
			c-1.1,1.1-1.6,2.4-1.6,3.9s0.5,2.8,1.6,3.9c1.1,1.1,2.4,1.6,3.9,1.6c1.5,0,2.8-0.5,3.9-1.6C300,200.6,300.5,199.3,300.5,197.8z"/>
		<path class="st0" d="M294.6,186.3h10c4.1,0,7.6-1.4,10.5-4.3c2.9-2.9,4.4-6.4,4.4-10.5v-23.3c-2.6,0-4.8,0.9-6.6,2.8
			c-1.8,1.8-2.7,4.1-2.7,6.7v13.9c0,1.5-0.5,2.8-1.6,3.9c-1.1,1.1-2.4,1.6-3.9,1.6h-10h-2.2h-7.1h-1.7h-7.6h-1.7h-7.6h-1.7h-7.6
			h-1.7h-0.6c-1.5,0-2.8-0.5-3.9-1.6c-1.1-1.1-1.6-2.4-1.6-3.9v-26.8c-7.1,0-13.1,1.2-17.9,3.6c-4.8,2.4-8.4,5.5-10.8,9.4
			c-2.4,3.9-3.6,8.1-3.6,12.5c0,4.4,1.6,8.2,4.7,11.4c3.2,3.2,7,4.8,11.4,4.8h9.4c0-2.6-0.9-4.8-2.8-6.7c-1.8-1.8-4-2.7-6.6-2.7
			c-1.9,0-3.5-0.7-4.8-2c-1.3-1.3-2-2.9-2-4.8c0-7.4,4.5-12.4,13.5-15v16.3c0,4.1,1.5,7.6,4.4,10.5c2.9,2.9,6.4,4.3,10.5,4.3h0.6
			h1.7h7.6h1.7h7.6h1.7h7.6h1.7h7.1H294.6z"/>
		<path class="st0" d="M396.1,186.3c3.9,0,7.3-1.3,10.1-4c2.8,2.7,6.2,4,10,4h1.2h1.7h7.6h1.7h7.6h1.7h7.6h1.7h7.6h1.7h5
			c4.1,0,7.6-1.4,10.5-4.3s4.4-6.4,4.4-10.5v-23.3c-2.6,0-4.8,0.9-6.6,2.8c-1.8,1.8-2.7,4.1-2.7,6.7v13.9c0,1.5-0.5,2.8-1.6,3.9
			s-2.4,1.6-3.9,1.6h-5h-1.7H447h-1.7h-7.6H436h-7.6h-1.7h-7.6h-1.7h-1.1c-1.5,0-2.8-0.5-3.9-1.6c-1.1-1.1-1.6-2.4-1.6-3.9v-48.4
			c-2.6,0-4.8,0.9-6.6,2.7c-1.8,1.8-2.8,4-2.8,6.6v39c0,1.5-0.5,2.8-1.6,3.9c-1.1,1.1-2.4,1.6-3.9,1.6h-4.2h-1.7h-7.6H381h-7.6h-1.7
			h-0.2c-1.5,0-2.8-0.5-3.9-1.6c-1.1-1.1-1.6-2.4-1.6-3.9v-4.4c0-5.1-1.8-9.4-5.3-13c-3.5-3.6-7.9-5.6-13.2-5.9H347
			c-0.6,0-1.2,0-1.7,0.1c-5.3,0.4-10.2,2.5-14.6,6.4l1.3,1.5c2.8,2.8,6.1,3.6,9.8,2.4c1.3-0.5,2.7-0.8,4.2-0.9h0.1
			c0.3,0,0.6,0,0.9,0h0.4c2.7,0.1,4.9,1.1,6.6,2.9c1.7,1.8,2.7,4,2.8,6.6c0,2.7-1,5-2.8,6.9c-1.8,1.9-4.1,2.9-6.8,3h-11.9
			c-2.6,0-4.8,0.9-6.6,2.7c-1.8,1.8-2.8,4-2.8,6.6h21.8c4.9-0.3,9-1.9,12.3-5.1c0.3,0.3,0.6,0.6,0.9,0.9c2.7,2.7,6.1,4.1,10,4.1h0.9
			h1.7h7.6h1.7h7.6h1.7H396.1z"/>
		<path class="st0" d="M458.4,194c-1.1,1.1-1.6,2.4-1.6,3.9s0.5,2.8,1.6,3.9c1.1,1.1,2.4,1.6,3.9,1.6c1.5,0,2.8-0.5,3.9-1.6
			c1.1-1.1,1.6-2.4,1.6-3.9s-0.5-2.8-1.6-3.9c-1.1-1.1-2.4-1.6-3.9-1.6C460.7,192.4,459.4,192.9,458.4,194z"/>
		<path class="st0" d="M50,244.5h-9.8V274h9.6c8.6,0,16.4-4.5,16.4-14.8C66.1,247.9,59.4,244.5,50,244.5z M48.6,268.5h-2v-18.4H50
			c5.9,0,9.1,2.3,9.1,9.2C59.1,266.8,55.6,268.5,48.6,268.5z"/>
		<path class="st0" d="M90.1,261.7c0,3.9-1.3,7.6-6.5,7.6c-5.3,0-6.7-3.4-6.7-8.1v-16.7h-6.5V262c0,6.9,3.5,12.7,12.8,12.7
			c7.5,0,13.4-3.5,13.4-12.8v-17.4h-6.5V261.7z"/>
		<path class="st0" d="M119.5,258.5c3.2-1.2,4.6-3.7,4.6-6.2c0-4.7-3.7-7.8-10.9-7.8h-10.8V274H114c7.2,0,11.3-3.1,11.3-8.7
			C125.3,262.5,123.5,259.5,119.5,258.5z M108.9,249.6h4.2c2.9,0,4.4,1.2,4.4,3.3c0,2.7-2.1,3.6-5,3.6h-3.6V249.6z M113.5,268.8
			h-4.6v-7.5h4.7c3.5,0,5,1.6,5,3.7C118.6,267.1,117.4,268.8,113.5,268.8z"/>
		<path class="st0" d="M137.5,244.5l-10.6,29.2v0.4h6.8l2.3-7.1h10.9l2.4,7.1h6.9v-0.4l-10.6-29.2H137.5z M137.7,261.8l3.7-11.3
			l3.8,11.3H137.7z"/>
		<rect x="160" y="244.5" class="st0" width="6.5" height="29.5"/>
		<path class="st0" d="M201.7,257.4c-1,2-2,4.2-2.6,5.8c-0.5-1.6-1.5-3.9-2.6-5.8l-6.7-12.9h-6.7V274h6.3v-18.4c0.4,1.1,1,2.4,2,4.4
			l5.2,10.3h5l5.1-10.3c1-2,1.6-3.3,2-4.4V274h6.4v-29.5h-6.7L201.7,257.4z"/>
		<path class="st0" d="M240.7,261.7c0,3.9-1.3,7.6-6.5,7.6c-5.3,0-6.7-3.4-6.7-8.1v-16.7H221V262c0,6.9,3.5,12.7,12.8,12.7
			c7.5,0,13.4-3.5,13.4-12.8v-17.4h-6.5V261.7z"/>
		<path class="st0" d="M272.9,264.4c-0.8-1.7-1.8-3.2-2.9-4.8L260,244.5h-7V274h6.3v-20c1.1,2.5,2.4,4.4,3.6,6.2l9.3,13.8h7v-29.5
			h-6.3V264.4z"/>
		<rect x="285.7" y="244.5" class="st0" width="6.5" height="29.5"/>
		<path class="st0" d="M312.1,269.2c-5.2,0-8.2-3.4-8.2-10c0-6.2,2.3-9.9,7.7-9.9c3.1,0,5.5,1.1,7,2.1l2.4-4.8
			c-3-1.8-5.9-2.7-9.8-2.7c-7.4,0-14.1,3.8-14.1,15.6c0,8.6,3.9,15.2,14.3,15.2c3.7,0,6.7-1.1,9.8-3l-2.5-4.6
			C316.9,268.2,315,269.2,312.1,269.2z"/>
		<rect x="325" y="244.5" class="st0" width="6.5" height="29.5"/>
		<path class="st0" d="M348.4,244.5H338V274h6.5v-9.9h3.7c7.9,0,11.8-4.3,11.8-10.2C360,248.6,356.4,244.5,348.4,244.5z
			 M347.6,258.9h-3.1v-9.3h3.8c3.1,0,5.1,1.4,5.1,4.5C353.4,257.9,351,258.9,347.6,258.9z"/>
		<path class="st0" d="M369.2,244.5l-10.6,29.2v0.4h6.8l2.3-7.1h10.9l2.4,7.1h6.9v-0.4l-10.6-29.2H369.2z M369.5,261.8l3.7-11.3
			l3.8,11.3H369.5z"/>
		<polygon class="st0" points="398.2,244.5 391.7,244.5 391.7,274 411.6,274 411.6,268.5 398.2,268.5 		"/>
		<rect x="415.5" y="244.5" class="st0" width="6.5" height="29.5"/>
		<polygon class="st0" points="425.8,250 435.3,250 435.3,274 441.7,274 441.7,250 450.9,250 450.9,244.5 425.8,244.5 		"/>
		<polygon class="st0" points="473,244.5 466,255.9 459.4,244.5 452.1,244.5 452.1,244.9 462.7,261.9 462.7,274 469.2,274 
			469.2,261.7 480,244.9 480,244.5 		"/>
	</g>
	<g>
		<path class="st0" d="M648,109.9l36.7-43.7c0,0-17.2-17.4-17.7-17.9c-0.5-0.5-1.3-1.2-3.2-1.2c-24.1,0-72.2,0-72.7,0
			c-2.2,0-3.4,2.8-1.8,4.3C604.1,66.2,648,109.9,648,109.9z"/>
		<linearGradient id="SVGID_1_" gradientUnits="userSpaceOnUse" x1="684.649" y1="70.1805" x2="619.3159" y2="274.4323">
			<stop  offset="0" style="stop-color:#FFCE71"/>
			<stop  offset="0.142" style="stop-color:#FDC86D"/>
			<stop  offset="0.3412" style="stop-color:#F6B960"/>
			<stop  offset="0.5742" style="stop-color:#EEA14C"/>
			<stop  offset="0.8309" style="stop-color:#E58334"/>
			<stop  offset="1" style="stop-color:#DF6D27"/>
		</linearGradient>
		<path class="st2" d="M775.9,159.2c-15.6-15.9-80.2-81.7-96.9-98.7c0,0-0.1-0.1-0.1-0.1h0c-0.9-0.9-2.7-1.1-3.6,0
			c-9,10.8-173.8,207.1-175.3,208.9c-1.5,1.9-1,4.3,2.6,4.3c20.1,0,157.4,0,160.2,0c2.8,0,4-1,4.9-1.9
			c0.9-0.9,99.9-100.5,108.3-108.9C776.9,161.8,776.9,160.2,775.9,159.2z"/>
	</g>
</g>
</svg>
